<svg version="1.1" id="Layer_1" xmlns="http://www.w3.org/2000/svg" xmlns:xlink="http://www.w3.org/1999/xlink" x="0px" y="0px"
	 width="100%" viewBox="0 0 150 130" enable-background="new 0 0 150 130" xml:space="preserve">
<path fill="gray" opacity="1.000000" stroke="none" 
	d="
M56.965462,115.015678 
	C51.142086,112.321106 45.368874,109.507454 39.459091,107.017998 
	C38.031319,106.416557 35.758484,106.244667 34.553383,106.983284 
	C30.758606,109.309113 27.286758,112.161827 23.082306,115.258034 
	C24.979355,106.657677 26.798811,98.729156 28.451580,90.766037 
	C29.158825,87.358498 29.268879,83.816689 30.106531,80.449387 
	C30.956205,77.033775 29.904619,74.952110 26.710443,73.890839 
	C19.662039,71.548996 12.591727,69.272888 5.523314,66.991768 
	C4.682650,66.720467 3.798165,66.584946 2.550494,66.298424 
	C9.653403,64.104195 16.355877,62.438797 22.742817,59.960289 
	C31.135008,56.703625 31.209297,56.054199 29.520641,47.455063 
	C28.528072,42.400600 27.722084,37.307453 26.636980,32.273785 
	C25.561766,27.285984 24.241491,22.351011 22.832815,16.592039 
	C26.980995,19.645071 30.675936,22.066307 34.003117,24.916801 
	C36.269779,26.858721 37.770649,26.440577 39.980190,24.856703 
	C45.461945,20.927193 51.374622,17.820597 58.808083,16.673306 
	C52.776184,21.734524 47.365829,26.274220 42.263275,30.555649 
	C46.509830,35.162189 49.978451,39.395718 53.960739,43.072975 
	C56.459373,45.380215 66.281555,41.932991 67.219849,38.587425 
	C69.633667,29.980747 71.802383,21.305393 74.084404,12.661538 
	C74.230804,12.107004 74.508148,11.587033 74.806320,10.848530 
	C77.575279,20.295538 80.153831,29.386400 82.924065,38.418472 
	C84.275429,42.824436 94.168259,45.108685 97.625633,41.939270 
	C99.343483,40.364491 100.981735,38.703194 102.684967,37.112049 
	C104.382942,35.525795 106.117142,33.978325 108.705116,31.622063 
	C103.830872,27.223930 99.077141,22.934534 93.567429,17.963001 
	C101.904236,18.190712 107.385666,23.310102 113.550980,26.824257 
	C117.904724,23.603306 122.263779,20.378428 126.909798,16.941252 
	C124.663406,28.182579 122.690659,38.915169 120.312477,49.557163 
	C119.273994,54.204212 120.208611,57.317478 124.885849,58.871452 
	C132.343369,61.349148 139.805161,63.814041 146.459137,66.017448 
	C140.040817,68.120575 132.785950,70.555244 125.492470,72.868134 
	C120.360847,74.495468 119.236130,77.824608 120.343796,82.833015 
	C122.664803,93.327744 124.646820,103.897430 126.892609,115.055252 
	C122.251488,111.629234 117.913055,108.426651 113.519157,105.183121 
	C110.066414,107.287201 106.684502,109.694389 103.004143,111.489769 
	C99.585678,113.157379 95.848801,114.172287 91.910469,114.720512 
	C97.385139,110.221321 102.859802,105.722130 107.983459,101.511406 
	C103.828224,96.976013 100.337959,92.807404 96.446854,89.054382 
	C94.123970,86.813950 83.910286,89.918106 82.992775,93.027580 
	C80.837379,100.332298 78.898064,107.701492 76.929779,115.060234 
	C76.400261,117.039909 76.080376,119.075661 74.650505,121.058823 
	C73.487007,115.890045 72.359070,110.712898 71.145004,105.556015 
	C70.538193,102.978500 69.875214,100.405365 69.062256,97.886864 
	C66.573120,90.175552 64.035110,88.294449 56.010628,88.248093 
	C55.152409,88.243134 54.115246,88.763527 53.458447,89.364944 
	C49.667179,92.836571 45.965313,96.405830 41.282772,100.842506 
	C46.969330,105.312500 52.228882,109.446838 57.619717,114.027664 
	C57.525242,114.707001 57.263397,114.887512 56.965462,115.015678 
M82.083939,49.014210 
	C73.152344,45.995483 65.715828,48.143955 59.986168,55.398438 
	C55.867748,60.612885 55.473896,69.497963 59.094917,75.504555 
	C63.152271,82.234932 71.087883,85.987808 78.059845,84.473366 
	C86.925659,82.547539 92.353859,76.938957 93.812874,68.196861 
	C94.975784,61.228970 90.543221,53.586205 82.083939,49.014210 
M99.352623,51.023521 
	C97.234703,50.342060 95.116776,49.660595 92.440865,48.799595 
	C101.493507,62.840023 101.587463,68.743462 93.092102,82.211945 
	C100.543655,81.435280 106.553070,78.170563 112.272789,74.229309 
	C112.706818,73.930237 112.889595,73.125885 113.002075,72.521576 
	C115.253128,60.428535 113.276215,56.790302 101.918518,52.047077 
	C101.306114,51.791325 100.691238,51.541504 99.352623,51.023521 
M42.283020,54.694450 
	C40.585098,56.674267 37.902187,58.439587 37.413696,60.682774 
	C36.626282,64.298645 37.201378,68.233711 37.389664,72.024574 
	C37.439869,73.035393 37.906178,74.550652 38.640823,74.919617 
	C44.717030,77.971176 50.901264,80.807632 57.052795,83.709198 
	C57.355568,83.342712 57.658337,82.976234 57.961109,82.609749 
	C48.125614,72.330070 49.065994,61.489815 56.729801,50.299793 
	C56.322670,49.982445 55.915543,49.665092 55.508415,49.347744 
	C51.314388,50.995579 47.120361,52.643414 42.283020,54.694450 
M35.829659,84.206657 
	C34.453049,89.796875 33.076435,95.387100 31.679436,101.060112 
	C36.809017,95.699638 41.855671,90.425835 46.914036,85.139786 
	C43.908958,83.792015 40.219414,82.137276 36.278584,80.369827 
	C36.122440,81.717598 36.027542,82.536713 35.829659,84.206657 
M32.155636,33.689621 
	C33.679977,39.512516 35.204319,45.335407 36.807705,51.460247 
	C40.554699,49.706635 44.149586,48.024212 47.744652,46.341702 
	C42.799873,41.281765 38.302937,36.620148 33.701332,32.064247 
	C33.242245,31.609718 32.146423,31.798311 31.346117,31.688425 
	C31.568020,32.113991 31.789925,32.539555 32.155636,33.689621 
M106.886353,90.551796 
	C110.420486,94.038910 113.954620,97.526024 117.488754,101.013138 
	C117.763397,100.811569 118.038040,100.610001 118.312675,100.408432 
	C116.736473,93.850716 115.160271,87.293007 113.503410,80.399712 
	C109.650627,82.271149 106.185341,83.954369 102.348694,85.817970 
	C103.919456,87.473701 105.141098,88.761444 106.886353,90.551796 
M118.059204,32.824863 
	C117.552002,32.638458 116.737549,32.150970 116.582268,32.309429 
	C112.000313,36.985165 107.483856,41.725079 102.918159,46.495358 
	C106.388092,48.106277 109.928047,49.749706 113.503044,51.409401 
	C115.021797,45.345829 116.492035,39.475922 118.059204,32.824863 
z"/>
<path fill="gray" opacity="1.000000" stroke="none" 
	d="
M57.154793,115.232651 
	C57.263397,114.887512 57.525242,114.707001 57.863823,114.262840 
	C58.422054,114.482979 58.867458,114.914421 59.312859,115.345863 
	C58.656616,115.380455 58.000370,115.415039 57.154793,115.232651 
z"/>
<circle cx="75" cy="66" r="15" stroke="none" fill="red" />
</svg>